<?xml version="1.0" standalone="no"?>
<!DOCTYPE svg PUBLIC "-//W3C//DTD SVG 20010904//EN"
 "http://www.w3.org/TR/2001/REC-SVG-20010904/DTD/svg10.dtd">
<svg version="1.0" xmlns="http://www.w3.org/2000/svg"
 width="200.000000pt" height="200.000000pt" viewBox="0 0 200.000000 200.000000"
 preserveAspectRatio="xMidYMid meet">
<metadata>
Created by potrace 1.11, written by Peter Selinger 2001-2013
</metadata>
<g transform="translate(0.000000,200.000000) scale(0.100000,-0.100000)"
fill="#000000" stroke="none">
<path d="M999 1944 c-8 -9 -165 -167 -350 -352 -185 -185 -391 -393 -458 -461
-109 -112 -137 -151 -102 -143 7 1 10 -2 7 -7 -3 -5 2 -15 11 -22 14 -12 16
-12 9 1 -5 8 32 -25 82 -74 50 -49 89 -93 86 -98 -3 -5 0 -7 8 -6 7 2 12 -5
12 -14 -1 -10 2 -15 7 -13 4 3 58 -46 120 -110 l112 -115 398 0 399 0 0 -62
c0 -58 -3 -66 -35 -102 -96 -108 -4 -20 295 283 182 184 330 339 330 345 0 6
-39 -29 -87 -78 l-88 -88 -3 183 c-2 183 -2 183 -29 211 -31 32 -45 36 -42 11
1 -10 1 -122 0 -248 l-1 -231 -81 -82 -81 -82 -64 0 -64 0 0 63 c1 34 -1 226
-2 427 l-3 365 52 5 52 5 -213 215 c-117 118 -225 232 -238 252 -22 32 -27 35
-39 22z m341 -924 l0 -430 -410 0 -410 0 0 303 c0 166 3 359 7 430 l6 127 404
0 403 0 0 -430z"/>
<path d="M1190 245 c-10 -12 -44 -15 -183 -15 l-171 0 29 -30 c28 -30 30 -30
138 -30 l109 0 -51 -51 c-29 -29 -50 -53 -48 -55 2 -2 46 39 98 92 110 111
104 104 97 104 -3 0 -11 -7 -18 -15z"/>
</g>
</svg>
