<svg xmlns="http://www.w3.org/2000/svg" viewBox="0 0 640 320" style="width:100%;max-width:640px;font-family:sans-serif;background:transparent">
  <!-- y-axis -->
  <line x1="40" y1="20" x2="40" y2="280" stroke="#334155" stroke-width="1"/>
  <!-- x-axis -->
  <line x1="40" y1="280" x2="620" y2="280" stroke="#334155" stroke-width="1"/>
  
  <rect x="42" y="214" width="48" height="66" fill="#94a3b8" rx="2"/>
  <text x="66" y="210" text-anchor="middle" font-size="10" fill="#94a3b8">25</text>
  <text x="66" y="294" text-anchor="middle" font-size="10" fill="#94a3b8">2016</text>
  <rect x="94.72727272727272" y="183" width="48" height="97" fill="#94a3b8" rx="2"/>
  <text x="118.72727272727272" y="179" text-anchor="middle" font-size="10" fill="#94a3b8">37</text>
  <text x="118.72727272727272" y="294" text-anchor="middle" font-size="10" fill="#94a3b8">2017</text>
  <rect x="147.45454545454544" y="164" width="48" height="116" fill="#94a3b8" rx="2"/>
  <text x="171.45454545454544" y="160" text-anchor="middle" font-size="10" fill="#94a3b8">44</text>
  <text x="171.45454545454544" y="294" text-anchor="middle" font-size="10" fill="#94a3b8">2018</text>
  <rect x="200.1818181818182" y="151" width="48" height="129" fill="#94a3b8" rx="2"/>
  <text x="224.1818181818182" y="147" text-anchor="middle" font-size="10" fill="#94a3b8">49</text>
  <text x="224.1818181818182" y="294" text-anchor="middle" font-size="10" fill="#94a3b8">2019</text>
  <rect x="252.9090909090909" y="44" width="48" height="236" fill="#4f8ef7" rx="2"/>
  <text x="276.9090909090909" y="40" text-anchor="middle" font-size="10" fill="#94a3b8">90</text>
  <text x="276.9090909090909" y="294" text-anchor="middle" font-size="10" fill="#94a3b8">2020</text>
  <rect x="305.6363636363636" y="20" width="48" height="260" fill="#4f8ef7" rx="2"/>
  <text x="329.6363636363636" y="16" text-anchor="middle" font-size="10" fill="#94a3b8">99</text>
  <text x="329.6363636363636" y="294" text-anchor="middle" font-size="10" fill="#94a3b8">2021</text>
  <rect x="358.3636363636364" y="49" width="48" height="231" fill="#4f8ef7" rx="2"/>
  <text x="382.3636363636364" y="45" text-anchor="middle" font-size="10" fill="#94a3b8">88</text>
  <text x="382.3636363636364" y="294" text-anchor="middle" font-size="10" fill="#94a3b8">2022</text>
  <rect x="411.09090909090907" y="235" width="48" height="45" fill="#94a3b8" rx="2"/>
  <text x="435.09090909090907" y="231" text-anchor="middle" font-size="10" fill="#94a3b8">17</text>
  <text x="435.09090909090907" y="294" text-anchor="middle" font-size="10" fill="#94a3b8">2023</text>
  <rect x="463.8181818181818" y="180" width="48" height="100" fill="#94a3b8" rx="2"/>
  <text x="487.8181818181818" y="176" text-anchor="middle" font-size="10" fill="#94a3b8">38</text>
  <text x="487.8181818181818" y="294" text-anchor="middle" font-size="10" fill="#94a3b8">2024</text>
  <rect x="516.5454545454545" y="188" width="48" height="92" fill="#94a3b8" rx="2"/>
  <text x="540.5454545454545" y="184" text-anchor="middle" font-size="10" fill="#94a3b8">35</text>
  <text x="540.5454545454545" y="294" text-anchor="middle" font-size="10" fill="#94a3b8">2025</text>
  <rect x="569.2727272727273" y="256" width="48" height="24" fill="#94a3b8" rx="2"/>
  <text x="593.2727272727273" y="252" text-anchor="middle" font-size="10" fill="#94a3b8">9</text>
  <text x="593.2727272727273" y="294" text-anchor="middle" font-size="10" fill="#94a3b8">2026</text>
</svg>